# Blender 4.0.2
# www.blender.org
mtllib tablones.mtl
o Tablones
v -0.892428 2.158995 0.049795
v -0.892065 2.157028 0.051795
v -0.894032 2.156665 0.049795
v 0.816312 2.474287 0.049795
v -0.892428 2.158995 0.001795
v -0.894032 2.156665 0.001795
v -0.892065 2.157028 -0.000205
v 0.816312 2.474287 0.001795
v 0.816588 2.472304 -0.000205
v 0.818556 2.472669 0.001795
v 0.851688 2.236412 0.001795
v 0.818556 2.472669 0.049795
v 0.816588 2.472304 0.051795
v 0.851688 2.236412 0.049795
v 0.849992 2.234110 0.049795
v 0.849713 2.236091 0.051795
v -0.855422 1.958643 0.051795
v -0.857396 1.958322 0.049795
v -0.855059 1.956676 0.049795
v -0.855059 1.956676 0.001795
v -0.857396 1.958322 0.001795
v -0.855422 1.958643 -0.000205
v 0.849992 2.234110 0.001795
v 0.849713 2.236091 -0.000205
v -1.018151 1.557287 0.049795
v -1.015352 1.558466 0.049795
v -1.015896 1.556539 0.051795
v -1.076824 1.350080 0.049795
v -1.018151 1.557287 0.001795
v -1.015896 1.556539 -0.000205
v -1.015352 1.558466 0.001795
v -1.076824 1.350080 0.001795
v -1.075122 1.347390 0.001795
v -1.074574 1.349316 -0.000205
v 0.868945 0.687397 -0.000205
v 0.871194 0.686628 0.001795
v 0.868180 0.685545 0.001795
v 0.958410 0.902933 -0.000205
v 0.960669 0.902189 0.001795
v 0.959183 0.904784 0.001795
v 0.959183 0.904784 0.049795
v 0.960669 0.902189 0.049795
v 0.958410 0.902933 0.051795
v 0.868945 0.687397 0.051795
v 0.871194 0.686628 0.049795
v 0.868180 0.685545 0.049795
v -1.074574 1.349316 0.051795
v -1.075122 1.347390 0.049795
v 0.940967 1.613481 0.000229
v 0.939391 1.615798 0.000229
v 0.938920 1.613783 -0.001834
v 0.900839 1.439379 0.000229
v 0.940967 1.613481 0.049731
v 0.938920 1.613783 0.051794
v 0.939391 1.615798 0.049731
v 0.900839 1.439379 0.049731
v 0.898333 1.437656 0.049731
v 0.898790 1.439675 0.051794
v -0.891341 1.690910 0.051795
v -0.893383 1.691196 0.049732
v -0.891643 1.688869 0.049732
v -0.862554 1.885445 0.051795
v -0.864594 1.885752 0.049732
v -0.862252 1.887485 0.049732
v -0.862252 1.887485 0.000230
v -0.864594 1.885752 0.000230
v -0.862554 1.885445 -0.001833
v -0.891341 1.690910 -0.001833
v -0.893383 1.691196 0.000230
v -0.891643 1.688869 0.000230
v 0.898790 1.439675 -0.001834
v 0.898333 1.437656 0.000229
v 0.511351 0.770632 -0.002205
v 0.508916 0.772053 -0.002205
v 0.510849 0.772568 -0.000205
v 0.745796 0.833006 -0.002205
v 0.511351 0.770632 -0.050205
v 0.510849 0.772568 -0.052205
v 0.508916 0.772053 -0.050205
v 0.745796 0.833006 -0.050205
v 0.747154 0.835436 -0.050205
v 0.745219 0.834922 -0.052205
v 0.245459 2.498330 -0.052205
v 0.244884 2.500246 -0.050205
v 0.247381 2.498885 -0.050205
v 0.075732 2.449289 -0.052205
v 0.075229 2.451225 -0.050205
v 0.073810 2.448734 -0.050205
v 0.073810 2.448734 -0.002205
v 0.075229 2.451225 -0.002205
v 0.075732 2.449289 -0.000205
v 0.245459 2.498330 -0.000205
v 0.244884 2.500246 -0.002205
v 0.247381 2.498885 -0.002205
v 0.745219 0.834922 -0.000205
v 0.747154 0.835436 -0.002205
v -0.522685 2.377637 -0.050205
v -0.525257 2.376308 -0.050205
v -0.522711 2.375988 -0.052205
v -0.359608 2.358123 -0.050205
v -0.522685 2.377637 -0.002205
v -0.522711 2.375988 -0.000205
v -0.525257 2.376308 -0.002205
v -0.359608 2.358123 -0.002205
v -0.357100 2.356190 -0.002205
v -0.359652 2.356476 -0.000205
v -0.372100 0.942888 -0.000205
v -0.372110 0.941254 -0.002205
v -0.369545 0.942929 -0.002205
v -0.566306 0.939544 -0.000205
v -0.566363 0.937909 -0.002205
v -0.568864 0.939496 -0.002205
v -0.568864 0.939496 -0.050205
v -0.566363 0.937909 -0.050205
v -0.566306 0.939544 -0.052205
v -0.372100 0.942888 -0.052205
v -0.372110 0.941254 -0.050205
v -0.369545 0.942929 -0.050205
v -0.359652 2.356476 -0.052205
v -0.357100 2.356190 -0.050205
v -0.332785 1.018909 -0.001343
v -0.334088 1.020602 -0.001343
v -0.332517 1.020463 0.000230
v -0.197105 1.006526 -0.001343
v -0.332785 1.018909 -0.039092
v -0.332517 1.020463 -0.040664
v -0.334088 1.020602 -0.039092
v -0.197105 1.006526 -0.039092
v -0.195260 1.007931 -0.039092
v -0.196831 1.008080 -0.040664
v 0.047388 2.364734 -0.040665
v 0.047666 2.366282 -0.039092
v 0.048938 2.364467 -0.039092
v -0.100395 2.390198 -0.040665
v -0.100132 2.391749 -0.039092
v -0.101944 2.390465 -0.039092
v -0.101944 2.390465 -0.001343
v -0.100132 2.391749 -0.001343
v -0.100395 2.390198 0.000230
v 0.047388 2.364734 0.000230
v 0.047666 2.366282 -0.001343
v 0.048938 2.364467 -0.001343
v -0.196831 1.008080 0.000230
v -0.195260 1.007931 -0.001343
vn -0.1283 0.6953 0.7071
vn -0.1283 0.6954 0.7071
vn -0.6725 0.4630 0.5774
vn -0.8237 0.5671 -0.0000
vn -0.1815 0.9834 -0.0000
vn -0.6725 0.4630 -0.5774
vn -0.1283 0.6954 -0.7071
vn -0.1283 0.6953 -0.7071
vn 0.4739 0.6572 -0.5860
vn 0.5849 0.8111 -0.0000
vn 0.7003 0.0982 -0.7070
vn 0.7002 0.0982 -0.7072
vn 0.9903 0.1389 -0.0000
vn 0.4739 0.6572 0.5860
vn 0.7002 0.0982 0.7072
vn 0.7003 0.0982 0.7070
vn 0.8051 -0.5932 -0.0000
vn 0.6596 -0.4860 0.5733
vn 0.1136 -0.6980 0.7071
vn 0.1136 -0.6980 0.7070
vn -0.0000 -0.0000 1.0000
vn -0.6954 -0.1284 0.7070
vn -0.6953 -0.1284 0.7071
vn -0.4719 -0.6699 0.5732
vn -0.5758 -0.8176 -0.0000
vn 0.1606 -0.9870 -0.0000
vn -0.4719 -0.6699 -0.5732
vn 0.1136 -0.6981 -0.7070
vn 0.1136 -0.6980 -0.7071
vn 0.6596 -0.4860 -0.5733
vn -0.0000 -0.0000 -1.0000
vn -0.6953 -0.1284 -0.7071
vn -0.6954 -0.1284 -0.7070
vn -0.9834 -0.1816 -0.0000
vn -0.3057 0.7258 0.6162
vn -0.3882 0.9216 -0.0000
vn -0.6201 0.1756 0.7646
vn -0.6200 0.1756 0.7647
vn -0.9622 0.2724 -0.0000
vn -0.3057 0.7258 -0.6162
vn -0.6200 0.1756 -0.7647
vn -0.6201 0.1756 -0.7646
vn -0.6772 -0.4285 -0.5982
vn -0.8451 -0.5347 -0.0000
vn -0.8451 -0.5346 -0.0000
vn -0.2280 -0.6694 -0.7071
vn 0.2715 -0.7557 -0.5959
vn 0.5954 -0.2471 -0.7645
vn 0.6792 0.3889 -0.6224
vn 0.2222 0.6712 -0.7072
vn 0.2222 0.6713 -0.7071
vn 0.8678 0.4969 -0.0000
vn 0.3143 0.9493 -0.0000
vn 0.6792 0.3890 0.6224
vn 0.2222 0.6713 0.7071
vn 0.2222 0.6712 0.7072
vn 0.5954 -0.2471 0.7645
vn 0.2715 -0.7557 0.5959
vn -0.2280 -0.6694 0.7071
vn -0.6772 -0.4285 0.5982
vn -0.3224 -0.9466 -0.0000
vn 0.3381 -0.9411 -0.0000
vn 0.3382 -0.9411 -0.0000
vn 0.9236 -0.3834 -0.0000
vn 0.8678 0.4970 -0.0000
vn 0.6652 0.4525 -0.5939
vn 0.8268 0.5624 -0.0000
vn 0.6890 -0.1588 -0.7071
vn 0.6891 -0.1588 -0.7070
vn 0.9745 -0.2246 -0.0000
vn 0.6652 0.4525 0.5939
vn 0.6891 -0.1588 0.7070
vn 0.6890 -0.1588 0.7071
vn 0.4687 -0.6811 0.5625
vn 0.5666 -0.8240 -0.0000
vn 0.5665 -0.8240 -0.0000
vn -0.0983 -0.7002 0.7072
vn -0.0983 -0.7003 0.7070
vn -0.6531 -0.4884 0.5788
vn -0.6997 0.1035 0.7069
vn -0.6995 0.1035 0.7071
vn -0.4855 0.6561 0.5778
vn 0.1055 0.6993 0.7070
vn 0.1054 0.6992 0.7071
vn -0.5948 0.8038 -0.0000
vn 0.1491 0.9888 -0.0000
vn -0.4855 0.6561 -0.5778
vn 0.1054 0.6992 -0.7071
vn 0.1055 0.6994 -0.7070
vn -0.6995 0.1035 -0.7071
vn -0.6997 0.1035 -0.7069
vn -0.6531 -0.4884 -0.5788
vn -0.0983 -0.7003 -0.7070
vn -0.0983 -0.7002 -0.7072
vn 0.4687 -0.6811 -0.5625
vn -0.1390 -0.9903 -0.0000
vn -0.8009 -0.5989 -0.0000
vn -0.9892 0.1464 -0.0000
vn -0.4111 -0.7044 0.5787
vn -0.5040 -0.8637 -0.0000
vn 0.1818 -0.6834 0.7071
vn 0.1818 -0.6833 0.7071
vn 0.2571 -0.9664 -0.0000
vn -0.4111 -0.7044 -0.5787
vn 0.1818 -0.6833 -0.7071
vn 0.1818 -0.6834 -0.7071
vn 0.7087 -0.3960 -0.5839
vn 0.8729 -0.4878 -0.0000
vn 0.8730 -0.4878 -0.0000
vn 0.6770 0.2034 -0.7073
vn 0.6771 0.2034 -0.7072
vn 0.3911 0.7184 -0.5753
vn -0.1963 0.6793 -0.7071
vn -0.1963 0.6794 -0.7070
vn -0.7126 0.4059 -0.5722
vn -0.6845 -0.1776 -0.7071
vn -0.6844 -0.1776 -0.7072
vn -0.8689 0.4950 -0.0000
vn -0.9679 -0.2512 -0.0000
vn -0.7126 0.4059 0.5722
vn -0.6844 -0.1776 0.7072
vn -0.6845 -0.1776 0.7071
vn -0.1963 0.6794 0.7070
vn -0.1963 0.6793 0.7071
vn 0.3914 0.7181 0.5754
vn 0.6771 0.2034 0.7072
vn 0.6770 0.2034 0.7073
vn 0.7087 -0.3961 0.5839
vn 0.9577 0.2877 -0.0000
vn 0.4786 0.8780 -0.0000
vn -0.2776 0.9607 -0.0000
vn -0.1231 0.7665 -0.6303
vn -0.0876 0.7692 -0.6330
vn -0.3714 0.7188 -0.5877
vn -0.4591 0.8884 -0.0000
vn -0.4590 0.8884 -0.0000
vn 0.2738 0.7395 -0.6150
vn 0.1188 0.9929 -0.0000
vn -0.1231 0.7665 0.6303
vn -0.3714 0.7188 0.5877
vn -0.0876 0.7692 0.6330
vn 0.2738 0.7395 0.6150
vn 0.2759 0.7390 0.6146
vn 0.5082 0.6593 0.5542
vn 0.6105 0.7920 -0.0000
vn 0.6164 -0.0054 0.7874
vn 0.6165 -0.0054 0.7874
vn 0.2088 -0.7579 0.6181
vn 0.4518 -0.6919 0.5631
vn 0.1985 -0.7595 0.6195
vn -0.1688 -0.7607 0.6267
vn -0.1936 -0.7568 0.6243
vn -0.4378 -0.6899 0.5765
vn -0.6161 0.0187 0.7875
vn -0.6162 0.0187 0.7874
vn -0.5358 -0.8444 -0.0000
vn -0.9995 0.0303 -0.0000
vn -0.1936 -0.7568 -0.6242
vn -0.4378 -0.6899 -0.5765
vn -0.1688 -0.7607 -0.6267
vn -0.6162 0.0187 -0.7874
vn -0.6161 0.0187 -0.7875
vn 0.2088 -0.7579 -0.6181
vn 0.1985 -0.7595 -0.6195
vn 0.4522 -0.6916 -0.5631
vn 0.6165 -0.0054 -0.7874
vn 0.6164 -0.0054 -0.7874
vn 0.5082 0.6593 -0.5542
vn 0.2760 0.7390 -0.6146
vn 1.0000 -0.0088 -0.0000
vn 0.5468 -0.8373 -0.0000
vn 0.0172 -0.9999 -0.0000
vn -0.6378 -0.4908 0.5936
vn -0.7925 -0.6099 -0.0000
vn -0.0643 -0.7043 0.7070
vn -0.0643 -0.7044 0.7069
vn -0.0909 -0.9959 -0.0000
vn -0.6376 -0.4907 -0.5938
vn -0.0643 -0.7042 -0.7071
vn -0.0643 -0.7041 -0.7072
vn 0.5008 -0.6579 -0.5624
vn 0.6058 -0.7956 -0.0000
vn 0.6960 -0.1253 -0.7071
vn 0.6958 -0.1253 -0.7072
vn 0.6679 0.4680 -0.5787
vn 0.1201 0.6970 -0.7069
vn 0.1201 0.6967 -0.7072
vn -0.4716 0.6660 -0.5779
vn -0.6974 0.1182 -0.7068
vn -0.6971 0.1181 -0.7071
vn -0.5777 0.8162 -0.0000
vn -0.5777 0.8163 -0.0000
vn -0.9859 0.1671 -0.0000
vn -0.4719 0.6660 0.5778
vn -0.6974 0.1182 0.7069
vn -0.6974 0.1182 0.7068
vn 0.1200 0.6967 0.7072
vn 0.1201 0.6970 0.7070
vn 0.6679 0.4680 0.5787
vn 0.6960 -0.1253 0.7070
vn 0.6960 -0.1253 0.7071
vn 0.5009 -0.6578 0.5626
vn 0.9842 -0.1772 -0.0000
vn 0.8189 0.5739 -0.0000
vn 0.1698 0.9855 -0.0000
vt 0.821880 0.321282
vt 0.822248 0.639093
vt 0.821880 0.639109
vt 0.271714 0.976206
vt 0.272323 0.976207
vt 0.272014 0.976640
vt 0.271731 0.965810
vt 0.004082 0.975773
vt 0.272032 0.965377
vt 0.272340 0.965811
vt 0.000891 0.876071
vt 0.318702 0.876439
vt 0.000875 0.876439
vt 0.056671 0.391805
vt 0.057181 0.391805
vt 0.056929 0.392172
vt 0.056671 0.383020
vt 0.057181 0.383020
vt 0.002407 0.832212
vt 0.002772 0.832219
vt 0.011794 0.523355
vt 0.001948 0.486187
vt 0.012219 0.486305
vt 0.056929 0.382654
vt 0.866107 0.637577
vt 0.866099 0.637211
vt 0.001517 0.523845
vt 0.011787 0.523963
vt 0.012219 0.523657
vt 0.866467 0.637196
vt 0.859371 0.321289
vt 0.859739 0.321289
vt 0.822248 0.321282
vt 0.859364 0.320923
vt 0.822248 0.320916
vt 0.920770 0.565982
vt 0.920769 0.565365
vt 0.921203 0.565673
vt 0.910360 0.565999
vt 0.909926 0.299738
vt 0.920336 0.299721
vt 0.909926 0.565692
vt 0.910359 0.565382
vt 0.318695 0.838947
vt 0.002788 0.831852
vt 0.318695 0.838579
vt 0.001524 0.523237
vt 0.001092 0.523530
vt 0.318702 0.876071
vt 0.319061 0.838955
vt 0.319067 0.876071
vt 0.920821 0.597107
vt 0.004099 0.965377
vt 0.000525 0.876071
vt 0.822247 0.639459
vt 0.910411 0.597124
vt 0.973714 0.544542
vt 0.974148 0.544849
vt 0.973713 0.545142
vt 0.963278 0.545125
vt 0.345656 0.730081
vt 0.344592 0.769668
vt 0.344226 0.769669
vt 0.901783 0.890445
vt 0.867667 0.900910
vt 0.867650 0.890501
vt 0.963279 0.544525
vt 0.962844 0.544831
vt 0.321357 0.791572
vt 0.320292 0.751984
vt 0.321723 0.791572
vt 0.867362 0.901344
vt 0.867044 0.900911
vt 0.867027 0.890502
vt 0.319926 0.751981
vt 0.003603 0.748380
vt 0.319913 0.751612
vt 0.003580 0.748748
vt 0.001504 0.597460
vt 0.001497 0.598069
vt 0.001078 0.597750
vt 0.000908 0.791572
vt 0.003214 0.748744
vt 0.007592 0.925111
vt 0.007338 0.925477
vt 0.007087 0.925111
vt 0.321370 0.791940
vt 0.007087 0.916325
vt 0.007592 0.916325
vt 0.973278 0.814022
vt 0.007338 0.915959
vt 0.665040 0.769668
vt 0.344578 0.770036
vt 0.662735 0.726840
vt 0.662369 0.726845
vt 0.011650 0.597576
vt 0.012069 0.597875
vt 0.011643 0.598185
vt 0.662346 0.726477
vt 0.346023 0.730077
vt 0.346035 0.729709
vt 0.867343 0.890068
vt 0.601991 0.901344
vt 0.601974 0.890935
vt 0.001924 0.560786
vt 0.012069 0.560902
vt 0.901800 0.900854
vt 0.000542 0.791572
vt 0.000885 0.791940
vt 0.962844 0.814005
vt 0.665064 0.770036
vt 0.665407 0.769669
vt 0.973735 0.272095
vt 0.974172 0.272400
vt 0.973734 0.272686
vt 0.963226 0.272669
vt 0.186410 0.003325
vt 0.154624 0.000930
vt 0.154627 0.000563
vt 0.907501 0.649539
vt 0.897119 0.621620
vt 0.907457 0.621604
vt 0.963227 0.272078
vt 0.962788 0.272382
vt 0.192119 0.324475
vt 0.223905 0.322081
vt 0.192122 0.324842
vt 0.896688 0.621312
vt 0.897118 0.620989
vt 0.907456 0.620973
vt 0.223903 0.000861
vt 0.224272 0.321683
vt 0.223903 0.321713
vt 0.188789 0.001125
vt 0.067094 0.516038
vt 0.067085 0.516642
vt 0.066658 0.516329
vt 0.188785 0.000759
vt 0.223903 0.000495
vt 0.080460 0.618385
vt 0.080203 0.618751
vt 0.079940 0.618385
vt 0.188420 0.001128
vt 0.191751 0.324508
vt 0.079940 0.609602
vt 0.080460 0.609602
vt 0.973296 0.541899
vt 0.080203 0.609236
vt 0.150925 0.324278
vt 0.154256 0.000897
vt 0.151290 0.324647
vt 0.186408 0.324545
vt 0.186408 0.324911
vt 0.186408 0.003692
vt 0.151294 0.324281
vt 0.077449 0.516189
vt 0.077876 0.516492
vt 0.077440 0.516793
vt 0.186777 0.003722
vt 0.907887 0.621295
vt 0.896688 0.350576
vt 0.907025 0.350560
vt 0.067521 0.486708
vt 0.077876 0.486859
vt 0.897164 0.649556
vt 0.224272 0.000858
vt 0.962788 0.541882
vt 0.186777 0.324547
vt 0.011936 0.491106
vt 0.012373 0.491395
vt 0.011943 0.491716
vt 0.001535 0.491833
vt 0.541767 0.529316
vt 0.542836 0.574507
vt 0.541395 0.529330
vt 0.001098 0.452932
vt 0.011506 0.452815
vt 0.001528 0.491223
vt 0.001098 0.491522
vt 0.588938 0.445921
vt 0.543747 0.444852
vt 0.543761 0.444480
vt 0.001007 0.280058
vt 0.000743 0.280430
vt 0.000488 0.280058
vt 0.000488 0.271124
vt 0.001007 0.271124
vt 0.589310 0.122780
vt 0.589310 0.445933
vt 0.588938 0.122776
vt 0.886223 0.913366
vt 0.885598 0.913365
vt 0.885912 0.912924
vt 0.556027 0.122053
vt 0.588938 0.122404
vt 0.551842 0.956654
vt 0.551525 0.957088
vt 0.551221 0.956653
vt 0.555640 0.122421
vt 0.543388 0.444468
vt 0.551238 0.946232
vt 0.551859 0.946233
vt 0.277118 0.956220
vt 0.277135 0.945798
vt 0.551543 0.945798
vt 0.219336 0.541209
vt 0.541383 0.528957
vt 0.218968 0.541596
vt 0.219692 0.574507
vt 0.219319 0.574507
vt 0.219340 0.541582
vt 0.886206 0.923937
vt 0.885894 0.924377
vt 0.885581 0.923936
vt 0.219695 0.574880
vt 0.542849 0.574880
vt 0.000743 0.270752
vt 0.614742 0.923496
vt 0.913882 0.913410
vt 0.913865 0.923981
vt 0.543209 0.574507
vt 0.588938 0.446293
vt 0.556013 0.122425
vt 0.614760 0.912924
vt 0.945008 0.571180
vt 0.944567 0.570869
vt 0.945007 0.570604
vt 0.955586 0.570587
vt 0.005322 0.326415
vt 0.029231 0.329355
vt 0.029235 0.329732
vt 0.947782 0.294197
vt 0.937340 0.271701
vt 0.947818 0.271718
vt 0.955587 0.571163
vt 0.956027 0.570850
vt 0.059998 0.000988
vt 0.036089 0.003928
vt 0.060001 0.000611
vt 0.936904 0.271389
vt 0.937341 0.271041
vt 0.947819 0.271058
vt 0.031639 0.327295
vt 0.035714 0.004352
vt 0.036088 0.004305
vt 0.059998 0.329417
vt 0.054784 0.477435
vt 0.054795 0.478054
vt 0.054364 0.477740
vt 0.031633 0.327669
vt 0.000995 0.192099
vt 0.000733 0.192471
vt 0.000488 0.192099
vt 0.060371 0.329446
vt 0.060371 0.000933
vt 0.000488 0.183161
vt 0.000995 0.183161
vt 0.944567 0.295855
vt 0.000733 0.182789
vt 0.029605 0.000897
vt 0.029605 0.329410
vt 0.000866 0.002675
vt 0.029231 0.000926
vt 0.000872 0.003048
vt 0.005321 0.326039
vt 0.065005 0.477259
vt 0.065436 0.477550
vt 0.065015 0.477878
vt 0.004947 0.325991
vt 0.948255 0.271407
vt 0.937777 0.000489
vt 0.948255 0.000506
vt 0.054364 0.452996
vt 0.064584 0.452820
vt 0.937304 0.294181
vt 0.031265 0.327268
vt 0.059999 0.329791
vt 0.955145 0.295838
vt 0.029232 0.000552
vt 0.000499 0.003075
s 1
usemtl Planks.01_BAKED
f 1/1/1 13/2/2 4/3/2
f 1/4/3 3/5/3 2/6/3
f 5/7/4 3/5/4 1/4/4
f 4/8/5 5/7/5 1/4/5
f 5/7/6 7/9/6 6/10/6
f 9/11/7 5/12/8 8/13/7
f 8/14/9 10/15/9 9/16/9
f 10/15/10 4/17/10 12/18/10
f 9/11/11 11/19/12 24/20/12
f 14/21/13 10/22/13 12/23/13
f 4/17/14 13/24/14 12/18/14
f 14/25/15 13/2/16 16/26/15
f 23/27/17 14/21/17 15/28/17
f 14/21/18 16/29/18 15/28/18
f 15/30/19 17/31/20 19/32/20
f 2/33/21 16/26/21 13/2/21
f 18/34/22 2/33/23 3/35/23
f 18/36/24 19/37/24 17/38/24
f 21/39/25 19/37/25 18/36/25
f 19/37/26 23/40/26 15/41/26
f 21/39/27 22/42/27 20/43/27
f 22/44/28 23/45/29 20/46/28
f 11/47/30 23/27/30 24/48/30
f 7/49/31 24/20/31 22/44/31
f 7/49/32 21/50/33 6/51/32
f 3/52/34 21/39/34 18/36/34
f 1/1/1 2/33/1 13/2/2
f 5/7/4 6/10/4 3/5/4
f 4/8/5 8/53/5 5/7/5
f 9/11/7 7/49/8 5/12/8
f 10/15/10 8/14/10 4/17/10
f 9/11/11 10/54/11 11/19/12
f 14/21/13 11/47/13 10/22/13
f 14/25/15 12/55/16 13/2/16
f 23/27/17 11/47/17 14/21/17
f 15/30/19 16/26/19 17/31/20
f 2/33/21 17/31/21 16/26/21
f 18/34/22 17/31/22 2/33/23
f 21/39/25 20/43/25 19/37/25
f 19/37/26 20/43/26 23/40/26
f 22/44/28 24/20/29 23/45/29
f 7/49/31 9/11/31 24/20/31
f 7/49/32 22/44/33 21/50/33
f 3/52/34 6/56/34 21/39/34
usemtl Planks.01_BAKED.001
f 25/57/35 27/58/35 26/59/35
f 31/60/36 25/57/36 26/59/36
f 28/61/37 27/62/38 25/63/38
f 25/64/39 32/65/39 28/66/39
f 29/67/40 31/60/40 30/68/40
f 30/69/41 32/70/42 29/71/41
f 32/65/43 34/72/43 33/73/43
f 32/65/44 48/74/45 28/66/45
f 34/75/46 37/76/46 33/77/46
f 30/69/31 35/78/31 34/75/31
f 36/79/47 37/80/47 35/81/47
f 38/82/48 36/83/48 35/78/48
f 39/84/49 38/85/49 40/86/49
f 31/87/50 38/82/51 30/69/50
f 39/84/52 41/88/52 42/89/52
f 41/90/53 31/60/53 26/59/53
f 42/89/54 41/88/54 43/91/54
f 43/92/55 26/93/56 27/62/56
f 45/94/57 43/92/57 44/95/57
f 27/62/21 44/95/21 43/92/21
f 45/96/58 44/97/58 46/98/58
f 46/99/59 47/100/59 48/101/59
f 28/66/60 48/74/60 47/102/60
f 48/74/61 37/103/61 46/104/61
f 37/80/62 45/96/63 46/98/63
f 45/96/64 39/105/64 42/106/64
f 31/60/36 29/67/36 25/57/36
f 28/61/37 47/100/37 27/62/38
f 25/64/39 29/107/39 32/65/39
f 30/69/41 34/75/42 32/70/42
f 32/65/44 33/73/44 48/74/45
f 34/75/46 35/78/46 37/76/46
f 30/69/31 38/82/31 35/78/31
f 38/82/48 39/108/48 36/83/48
f 31/87/50 40/109/51 38/82/51
f 39/84/52 40/86/65 41/88/52
f 41/90/53 40/110/53 31/60/53
f 43/92/55 41/111/55 26/93/56
f 45/94/57 42/112/57 43/92/57
f 27/62/21 47/100/21 44/95/21
f 46/99/59 44/95/59 47/100/59
f 48/74/61 33/73/61 37/103/61
f 37/80/62 36/79/62 45/96/63
f 45/96/64 36/79/64 39/105/64
usemtl Planks.01_BAKED.002
f 49/113/66 51/114/66 50/115/66
f 55/116/67 49/113/67 50/115/67
f 52/117/68 51/118/69 49/119/69
f 49/120/70 56/121/70 52/122/70
f 53/123/71 55/116/71 54/124/71
f 54/125/72 56/126/73 53/127/72
f 56/121/74 58/128/74 57/129/74
f 56/121/75 72/130/76 52/122/76
f 59/131/77 57/132/78 58/133/78
f 62/134/21 58/133/21 54/125/21
f 60/135/79 61/136/79 59/137/79
f 59/131/80 63/138/81 60/139/80
f 63/140/82 62/141/82 64/142/82
f 64/143/83 54/125/84 55/144/84
f 63/140/85 65/145/85 66/146/85
f 65/147/86 55/116/86 50/115/86
f 66/146/87 65/145/87 67/148/87
f 51/118/88 65/149/89 50/150/88
f 66/151/90 68/152/91 69/153/91
f 71/154/31 67/155/31 51/118/31
f 69/156/92 68/157/92 70/158/92
f 72/159/93 68/152/94 71/154/93
f 52/122/95 72/130/95 71/160/95
f 72/130/96 61/161/96 70/162/96
f 61/136/97 69/156/97 70/158/97
f 69/156/98 63/163/98 66/164/98
f 55/116/67 53/123/67 49/113/67
f 52/117/68 71/154/68 51/118/69
f 49/120/70 53/165/70 56/121/70
f 54/125/72 58/133/73 56/126/73
f 56/121/75 57/129/75 72/130/76
f 59/131/77 61/166/77 57/132/78
f 62/134/21 59/131/21 58/133/21
f 59/131/80 62/134/81 63/138/81
f 64/143/83 62/134/83 54/125/84
f 63/140/85 64/142/85 65/145/85
f 65/147/86 64/167/86 55/116/86
f 51/118/88 67/155/89 65/149/89
f 66/151/90 67/155/90 68/152/91
f 71/154/31 68/152/31 67/155/31
f 72/159/93 70/168/94 68/152/94
f 72/130/96 57/129/96 61/161/96
f 61/136/97 60/135/97 69/156/97
f 69/156/98 60/135/98 63/163/98
usemtl Planks.02_BAKED
f 73/169/99 75/170/99 74/171/99
f 79/172/100 73/169/100 74/171/100
f 73/173/101 95/174/102 75/175/101
f 73/169/103 80/176/103 76/177/103
f 77/178/104 79/172/104 78/179/104
f 82/180/105 77/181/106 78/182/106
f 80/183/107 82/184/107 81/185/107
f 80/183/108 96/186/109 76/187/109
f 82/180/110 85/188/111 81/189/110
f 78/182/31 83/190/31 82/180/31
f 84/191/112 85/192/112 83/193/112
f 83/190/113 87/194/114 84/195/113
f 87/196/115 86/197/115 88/198/115
f 88/199/116 78/182/117 79/200/117
f 87/196/118 89/201/118 90/202/118
f 89/201/119 79/203/119 74/204/119
f 90/202/120 89/201/120 91/205/120
f 75/175/121 89/206/122 74/207/121
f 90/208/123 92/209/124 93/210/124
f 75/175/21 92/209/21 91/211/21
f 93/212/125 92/213/125 94/214/125
f 94/215/126 95/174/127 96/216/127
f 76/187/128 96/186/128 95/217/128
f 96/218/129 85/192/129 94/214/129
f 85/192/130 93/212/130 94/214/130
f 93/212/131 87/219/131 90/220/131
f 79/172/100 77/178/100 73/169/100
f 73/173/101 76/221/102 95/174/102
f 73/169/103 77/178/103 80/176/103
f 82/180/105 80/222/105 77/181/106
f 80/183/108 81/185/108 96/186/109
f 82/180/110 83/190/111 85/188/111
f 78/182/31 86/223/31 83/190/31
f 83/190/113 86/223/114 87/194/114
f 88/199/116 86/223/116 78/182/117
f 87/196/118 88/198/118 89/201/118
f 89/201/119 88/198/119 79/203/119
f 75/175/121 91/211/122 89/206/122
f 90/208/123 91/211/123 92/209/124
f 75/175/21 95/174/21 92/209/21
f 94/215/126 92/209/126 95/174/127
f 96/218/129 81/224/129 85/192/129
f 85/192/130 84/191/130 93/212/130
f 93/212/131 84/191/131 87/219/131
usemtl Planks.02_BAKED.001
f 97/225/132 99/226/133 98/227/134
f 103/228/135 97/225/136 98/227/136
f 100/229/137 99/230/133 97/231/132
f 97/232/138 104/233/138 100/234/138
f 101/235/139 103/228/140 102/236/141
f 102/237/141 104/238/142 101/239/139
f 104/233/142 106/240/143 105/241/144
f 104/233/145 120/242/145 100/234/145
f 107/243/146 105/244/147 106/245/147
f 110/246/21 106/245/21 102/237/21
f 108/247/148 109/248/149 107/249/150
f 110/246/151 108/250/148 107/243/150
f 111/251/152 110/252/151 112/253/153
f 112/254/154 102/237/155 103/255/155
f 111/251/156 113/256/156 114/257/156
f 113/258/157 103/228/157 98/227/157
f 114/257/158 113/256/159 115/259/160
f 99/230/161 113/260/162 98/261/161
f 117/262/163 115/263/160 116/264/164
f 119/265/31 115/263/31 99/230/31
f 117/266/163 116/267/164 118/268/165
f 120/269/166 116/264/167 119/265/166
f 100/234/137 120/242/168 119/270/169
f 120/242/170 109/271/170 118/272/170
f 109/248/171 117/266/171 118/268/171
f 117/266/172 111/273/172 114/274/172
f 103/228/135 101/235/135 97/225/136
f 100/229/137 119/265/169 99/230/133
f 97/232/138 101/275/138 104/233/138
f 102/237/141 106/245/143 104/238/142
f 104/233/145 105/241/145 120/242/145
f 107/243/146 109/276/146 105/244/147
f 110/246/21 107/243/21 106/245/21
f 110/246/151 111/277/152 108/250/148
f 112/254/154 110/246/154 102/237/155
f 111/251/156 112/253/156 113/256/156
f 113/258/157 112/278/157 103/228/157
f 99/230/161 115/263/162 113/260/162
f 117/262/163 114/279/158 115/263/160
f 119/265/31 116/264/31 115/263/31
f 120/269/166 118/280/167 116/264/167
f 120/242/170 105/241/170 109/271/170
f 109/248/171 108/247/171 117/266/171
f 117/266/172 108/247/172 111/273/172
usemtl Planks.01_BAKED.003
f 121/113/173 123/114/173 122/115/173
f 127/116/174 121/113/174 122/115/174
f 124/117/175 123/118/176 121/119/176
f 121/120/177 128/121/177 124/122/177
f 125/123/178 127/116/178 126/124/178
f 126/125/179 128/126/180 125/127/179
f 128/121/181 130/128/181 129/129/181
f 128/121/182 144/130/182 124/122/182
f 131/131/183 129/132/184 130/133/184
f 134/134/31 130/133/31 126/125/31
f 132/135/185 133/136/185 131/137/185
f 131/131/186 135/138/187 132/139/186
f 135/140/188 134/141/188 136/142/188
f 136/143/189 126/125/190 127/144/190
f 135/140/191 137/145/191 138/146/192
f 137/147/193 127/116/193 122/115/193
f 138/146/194 137/145/194 139/148/194
f 123/118/195 137/149/196 122/150/195
f 138/151/197 140/152/198 141/153/198
f 143/154/21 139/155/21 123/118/21
f 141/156/199 140/157/199 142/158/199
f 144/159/200 140/152/201 143/154/200
f 124/122/202 144/130/202 143/160/202
f 144/130/203 133/161/203 142/162/203
f 133/136/204 141/156/204 142/158/204
f 141/156/205 135/163/205 138/164/205
f 127/116/174 125/123/174 121/113/174
f 124/117/175 143/154/175 123/118/176
f 121/120/177 125/165/177 128/121/177
f 126/125/179 130/133/180 128/126/180
f 128/121/182 129/129/182 144/130/182
f 131/131/183 133/166/183 129/132/184
f 134/134/31 131/131/31 130/133/31
f 131/131/186 134/134/187 135/138/187
f 136/143/189 134/134/189 126/125/190
f 135/140/191 136/142/192 137/145/191
f 137/147/193 136/167/193 127/116/193
f 123/118/195 139/155/196 137/149/196
f 138/151/197 139/155/197 140/152/198
f 143/154/21 140/152/21 139/155/21
f 144/159/200 142/168/201 140/152/201
f 144/130/203 129/129/203 133/161/203
f 133/136/204 132/135/204 141/156/204
f 141/156/205 132/135/205 135/163/205
