# Blender v3.2.0 OBJ File: 'graficas modelos.blend'
# www.blender.org
mtllib ARBUSTO.mtl
o Arbusto_Cube.022
v 2.224568 1.723787 4.438333
v -2.272077 1.723788 4.438333
v 2.224568 8.161305 4.438333
v -2.272077 8.161305 4.438333
v 2.201920 0.764450 4.438333
v 1.635039 0.244278 4.438333
v -1.780645 9.640814 4.438333
v -2.253499 0.764450 4.438333
v -1.794704 1.723788 6.823756
v 2.201920 9.120642 4.438333
v -2.253499 9.120642 4.438333
v -1.794704 8.161304 6.823755
v 1.635039 9.640814 4.438333
v 1.652177 1.723788 6.823756
v 1.652177 8.161304 6.823755
v -1.780645 0.244278 4.438333
v -1.791190 9.131579 6.527380
v -1.791190 0.753513 6.527380
v 1.647892 0.753513 6.527380
v 1.647892 9.131580 6.527380
v 2.224568 1.723787 0.000000
v -2.272077 1.723788 0.000000
v -2.272077 8.161304 0.000000
v 2.224567 8.161305 0.000000
v 2.201920 9.120642 0.000000
v -2.253499 9.120642 0.000000
v -1.780645 0.244278 0.000000
v -1.780645 9.640814 0.000000
v 2.201920 0.764450 0.000000
v -2.253499 0.764450 0.000000
v 1.635039 9.640814 0.000000
v 1.635039 0.244278 0.000000
v 2.224568 1.723787 -4.438333
v -2.272077 1.723788 -4.438333
v 2.224568 8.161305 -4.438333
v -2.272077 8.161305 -4.438333
v 2.201920 0.764450 -4.438333
v 1.635039 0.244278 -4.438333
v -1.780645 9.640814 -4.438333
v -2.253499 0.764450 -4.438333
v -1.794704 1.723788 -6.823756
v 2.201920 9.120642 -4.438333
v -2.253499 9.120642 -4.438333
v -1.794704 8.161304 -6.823755
v 1.635039 9.640814 -4.438333
v 1.652177 1.723788 -6.823756
v 1.652177 8.161304 -6.823755
v -1.780645 0.244278 -4.438333
v -1.791190 9.131579 -6.527380
v -1.791190 0.753513 -6.527380
v 1.647892 0.753513 -6.527380
v 1.647892 9.131580 -6.527380
vt 0.700066 0.121553
vt 0.302577 0.007473
vt 0.302082 0.121553
vt 0.186431 0.803146
vt 0.509154 0.732113
vt 0.509154 0.803146
vt 0.068716 0.375544
vt 0.209676 0.376269
vt 0.209676 0.343779
vt 0.034531 0.803956
vt 0.186431 0.732113
vt 0.012981 0.732113
vt 0.186431 0.255457
vt 0.509154 0.184424
vt 0.509154 0.255457
vt 0.186431 0.255457
vt 0.509154 0.732113
vt 0.509154 0.255457
vt 0.034531 0.183615
vt 0.186431 0.184424
vt 0.209676 0.376269
vt 0.068716 0.375544
vt 0.209676 0.343779
vt 0.509155 0.376269
vt 0.209676 0.610962
vt 0.509155 0.610962
vt 0.012981 0.255457
vt 0.209676 0.649913
vt 0.068716 0.611845
vt 0.209676 0.610962
vt 0.034531 0.183614
vt 0.186431 0.184424
vt 0.700066 0.878447
vt 0.302082 0.878447
vt 0.012981 0.732113
vt 0.186431 0.732113
vt 0.068716 0.611845
vt 0.302577 0.992527
vt 0.034531 0.803956
vt 0.209676 0.649913
vt 0.509155 0.610962
vt 0.509155 0.649913
vt 0.509155 0.649913
vt 0.509154 0.803146
vt 0.186431 0.803146
vt 0.509155 0.343779
vt 0.302577 0.007473
vt 0.700066 0.121553
vt 0.302082 0.121553
vt 0.831878 0.803146
vt 0.949593 0.375544
vt 0.808634 0.343779
vt 0.808634 0.376269
vt 0.831878 0.732113
vt 0.983777 0.803956
vt 1.005328 0.732113
vt 0.831878 0.255457
vt 0.831878 0.255457
vt 0.983777 0.183615
vt 1.005328 0.255457
vt 0.808634 0.376269
vt 0.808634 0.343779
vt 0.949593 0.375544
vt 0.808634 0.610962
vt 0.808634 0.649913
vt 0.808634 0.610962
vt 0.949593 0.611845
vt 0.983777 0.183614
vt 0.831878 0.184424
vt 0.700066 0.878447
vt 0.302082 0.878447
vt 0.831878 0.732113
vt 1.005328 0.255457
vt 1.005328 0.732113
vt 0.302577 0.992527
vt 0.699660 0.992527
vt 0.983777 0.803956
vt 0.808634 0.649913
vt 0.949593 0.611845
vt 0.831878 0.184424
vt 0.831878 0.803146
vt 0.699660 0.007473
vt 0.012981 0.255457
vt 0.699660 0.992527
vt 0.509155 0.343779
vt 0.509155 0.376269
vt 0.509154 0.184424
vt 0.699660 0.007473
vn 0.0000 -0.2921 0.9564
vn 0.9997 0.0236 -0.0000
vn -0.7306 0.6642 0.1582
vn -0.9786 0.0634 0.1958
vn 0.9997 -0.0236 0.0000
vn -1.0000 0.0000 0.0000
vn -0.9762 -0.0189 0.2159
vn -0.7306 -0.6642 0.1582
vn 0.0000 1.0000 0.0000
vn -0.9806 0.0000 0.1962
vn 0.6659 -0.7257 0.1728
vn 0.9664 -0.0228 0.2562
vn 0.0000 0.0000 1.0000
vn 0.9724 0.0000 0.2333
vn -0.0000 0.9716 0.2368
vn 0.0000 0.2921 0.9564
vn 0.9696 0.0754 0.2327
vn 0.6659 0.7257 0.1728
vn 0.0000 -0.9716 0.2368
vn -0.7400 0.6726 0.0000
vn 0.0000 -1.0000 0.0000
vn 1.0000 0.0000 -0.0000
vn 0.6761 0.7368 0.0000
vn -0.9998 -0.0194 0.0000
vn 0.6761 -0.7368 0.0000
vn -0.9998 0.0194 0.0000
vn -0.7400 -0.6726 0.0000
vn 0.0000 -0.2921 -0.9564
vn -0.7306 0.6642 -0.1582
vn -0.9786 0.0634 -0.1958
vn -0.9786 -0.0634 -0.1958
vn -0.7306 -0.6642 -0.1582
vn -0.9806 0.0000 -0.1962
vn 0.6659 -0.7257 -0.1728
vn 0.9664 -0.0228 -0.2562
vn 0.0000 0.0000 -1.0000
vn 0.9724 0.0000 -0.2333
vn 0.0000 0.9716 -0.2368
vn 0.0000 0.2921 -0.9564
vn 0.9664 0.0228 -0.2562
vn 0.6659 0.7257 -0.1728
vn 0.0000 -0.9716 -0.2368
vn -0.9762 0.0189 0.2159
vn -0.9786 -0.0634 0.1958
vn 0.9696 -0.0754 0.2327
vn 0.9664 0.0228 0.2562
vn -0.9762 0.0189 -0.2159
vn -0.9762 -0.0189 -0.2159
vn 0.9696 -0.0754 -0.2327
vn 0.9696 0.0754 -0.2327
usemtl mat_arbusto
s off
f 9/1/1 19/2/1 14/3/1
f 10/4/2 24/5/2 25/6/2
f 17/7/3 7/8/3 11/9/3
f 17/10/4 4/11/4 12/12/4
f 1/13/5 29/14/5 21/15/5
f 2/16/6 23/17/6 22/18/6
f 18/19/7 2/16/7 8/20/7
f 16/21/8 18/22/8 8/23/8
f 28/24/9 13/25/9 31/26/9
f 9/27/10 4/11/10 2/16/10
f 5/28/11 19/29/11 6/30/11
f 1/13/12 19/31/12 5/32/12
f 12/33/13 14/3/13 15/34/13
f 15/35/14 1/13/14 3/36/14
f 13/25/15 17/7/15 20/37/15
f 20/38/16 12/33/16 15/34/16
f 3/36/17 20/39/17 15/35/17
f 10/40/18 13/25/18 20/37/18
f 18/22/19 6/30/19 19/29/19
f 28/24/20 11/9/20 7/8/20
f 16/21/21 32/41/21 6/30/21
f 1/13/22 24/5/22 3/36/22
f 25/42/23 13/25/23 10/40/23
f 22/18/24 8/20/24 2/16/24
f 6/30/25 29/43/25 5/28/25
f 26/44/26 4/11/26 11/45/26
f 30/46/27 16/21/27 8/23/27
f 51/47/28 41/48/28 46/49/28
f 24/5/2 42/50/2 25/6/2
f 49/51/29 43/52/29 39/53/29
f 36/54/30 49/55/30 44/56/30
f 29/14/5 33/57/5 21/15/5
f 23/17/6 34/58/6 22/18/6
f 50/59/31 34/58/31 41/60/31
f 48/61/32 40/62/32 50/63/32
f 45/64/9 28/24/9 31/26/9
f 41/60/33 36/54/33 44/56/33
f 37/65/34 38/66/34 51/67/34
f 51/68/35 33/57/35 37/69/35
f 46/49/36 44/70/36 47/71/36
f 35/72/37 46/73/37 47/74/37
f 45/64/38 49/51/38 39/53/38
f 52/75/39 44/70/39 49/76/39
f 35/72/40 52/77/40 42/50/40
f 42/78/41 52/79/41 45/64/41
f 38/66/42 50/63/42 51/67/42
f 43/52/20 28/24/20 39/53/20
f 32/41/21 48/61/21 38/66/21
f 24/5/22 33/57/22 35/72/22
f 45/64/23 25/42/23 42/78/23
f 40/80/24 22/18/24 34/58/24
f 29/43/25 38/66/25 37/65/25
f 36/54/26 26/44/26 43/81/26
f 48/61/27 30/46/27 40/62/27
f 9/1/1 18/82/1 19/2/1
f 10/4/2 3/36/2 24/5/2
f 17/10/43 11/45/43 4/11/43
f 1/13/5 5/32/5 29/14/5
f 2/16/6 4/11/6 23/17/6
f 18/19/44 9/27/44 2/16/44
f 28/24/9 7/8/9 13/25/9
f 9/27/10 12/12/10 4/11/10
f 1/13/45 14/83/45 19/31/45
f 12/33/13 9/1/13 14/3/13
f 15/35/14 14/83/14 1/13/14
f 13/25/15 7/8/15 17/7/15
f 20/38/16 17/84/16 12/33/16
f 3/36/46 10/4/46 20/39/46
f 18/22/19 16/21/19 6/30/19
f 28/24/20 26/85/20 11/9/20
f 16/21/21 27/86/21 32/41/21
f 1/13/22 21/15/22 24/5/22
f 25/42/23 31/26/23 13/25/23
f 22/18/24 30/87/24 8/20/24
f 6/30/25 32/41/25 29/43/25
f 26/44/26 23/17/26 4/11/26
f 30/46/27 27/86/27 16/21/27
f 51/47/28 50/88/28 41/48/28
f 24/5/2 35/72/2 42/50/2
f 36/54/47 43/81/47 49/55/47
f 29/14/5 37/69/5 33/57/5
f 23/17/6 36/54/6 34/58/6
f 50/59/48 40/80/48 34/58/48
f 45/64/9 39/53/9 28/24/9
f 41/60/33 34/58/33 36/54/33
f 51/68/49 46/73/49 33/57/49
f 46/49/36 41/48/36 44/70/36
f 35/72/37 33/57/37 46/73/37
f 45/64/38 52/79/38 49/51/38
f 52/75/39 47/71/39 44/70/39
f 35/72/50 47/74/50 52/77/50
f 38/66/42 48/61/42 50/63/42
f 43/52/20 26/85/20 28/24/20
f 32/41/21 27/86/21 48/61/21
f 24/5/22 21/15/22 33/57/22
f 45/64/23 31/26/23 25/42/23
f 40/80/24 30/87/24 22/18/24
f 29/43/25 32/41/25 38/66/25
f 36/54/26 23/17/26 26/44/26
f 48/61/27 27/86/27 30/46/27
