# Blender v3.2.0 OBJ File: 'graficas modelos.blend'
# www.blender.org
mtllib Arbusto.mtl
o Arbusto_Cube.022
v 1.956811 1.723785 4.438333
v 1.956811 8.161305 4.438333
v 1.956811 -0.000003 4.438333
v 1.833117 9.120642 4.438333
v 1.684798 9.640814 4.438333
v 1.701936 1.723788 6.823756
v 1.701936 8.161304 6.823755
v 1.697652 0.000000 6.527380
v 1.699731 8.939965 6.006876
v 1.956811 1.723785 -0.000001
v 1.956811 8.161305 -0.000001
v 1.833117 9.120642 -0.000001
v 1.956811 -0.000003 -0.000001
v 1.684798 9.640814 0.000000
v 1.956811 1.723785 -4.438336
v 1.956811 8.161305 -4.438336
v 1.956811 -0.000003 -4.438336
v 1.833117 9.120642 -4.438336
v 1.684798 9.640814 -4.438333
v 1.701936 1.723788 -6.823756
v 1.701936 8.161304 -6.823755
v 1.697652 0.000000 -6.527381
v 1.699731 8.939965 -6.006876
v 0.000000 0.000000 6.527380
v 0.000000 8.939965 6.006876
v -0.001304 9.640814 0.000000
v 0.000000 0.000000 -6.527381
v 0.000000 8.939965 -6.006876
v -0.001304 9.640814 4.438333
v 0.000000 1.723788 6.823756
v 0.000000 8.161304 6.823755
v -0.001304 9.640814 -4.438333
v 0.000000 1.723788 -6.823756
v 0.000000 8.161304 -6.823755
v -1.956811 1.723785 4.438333
v -1.956811 8.161305 4.438333
v -1.956811 -0.000003 4.438333
v -1.833117 9.120642 4.438333
v -1.684798 9.640814 4.438333
v -1.701936 1.723788 6.823756
v -1.701936 8.161304 6.823755
v -1.697652 0.000000 6.527380
v -1.699731 8.939965 6.006876
v -1.956811 1.723785 -0.000001
v -1.956811 8.161305 -0.000001
v -1.833117 9.120642 -0.000001
v -1.956811 -0.000003 -0.000001
v -1.684798 9.640814 0.000000
v -1.956811 1.723785 -4.438336
v -1.956811 8.161305 -4.438336
v -1.956811 -0.000003 -4.438336
v -1.833117 9.120642 -4.438336
v -1.684798 9.640814 -4.438333
v -1.701936 1.723788 -6.823756
v -1.701936 8.161304 -6.823755
v -1.697652 0.000000 -6.527381
v -1.699731 8.939965 -6.006876
v 0.001304 9.640814 0.000000
v 0.001304 9.640814 4.438333
v 0.001304 9.640814 -4.438333
vt 0.826179 0.497335
vt 0.783482 0.301338
vt 0.826179 0.301338
vt 0.500592 0.497335
vt 0.424842 0.301338
vt 0.500592 0.301338
vt 0.425974 0.589588
vt 0.424842 0.497335
vt 0.783482 0.497335
vt 0.501705 0.602676
vt 0.818821 0.566603
vt 0.784594 0.602676
vt 0.849684 0.497335
vt 0.849684 0.301338
vt 0.826179 0.105340
vt 0.500592 0.105340
vt 0.425974 0.013088
vt 0.424842 0.105340
vt 0.783482 0.105340
vt 0.501705 0.000000
vt 0.784594 0.000000
vt 0.818821 0.036074
vt 0.849684 0.105340
vt 0.225473 0.679636
vt 0.300442 0.602676
vt 0.300631 0.679636
vt 0.924785 0.301338
vt 0.999243 0.105340
vt 0.999243 0.301338
vt 0.225473 0.962888
vt 0.300631 0.962888
vt 0.924842 0.036074
vt 0.999902 0.036074
vt 0.924842 0.000000
vt 1.000000 0.000000
vt 0.000189 0.602676
vt 0.075158 0.679636
vt 0.000000 0.679636
vt 0.999243 0.497335
vt 0.075158 0.962888
vt 0.000000 0.962888
vt 0.924842 0.566603
vt 0.924785 0.497335
vt 0.999902 0.566603
vt 0.924842 0.602676
vt 0.358640 0.301338
vt 0.401336 0.105340
vt 0.401336 0.301338
vt 0.000000 0.301338
vt 0.075750 0.105340
vt 0.075750 0.301338
vt 0.001131 0.013088
vt 0.000000 0.105340
vt 0.358640 0.105340
vt 0.076863 0.000000
vt 0.359752 0.000000
vt 0.393979 0.036074
vt 0.424842 0.105340
vt 0.424842 0.301338
vt 0.401336 0.497335
vt 0.075750 0.497335
vt 0.001131 0.589588
vt 0.000000 0.497335
vt 0.358640 0.497335
vt 0.076863 0.602676
vt 0.393979 0.566603
vt 0.359752 0.602676
vt 0.424842 0.497335
vt 0.150505 0.602676
vt 0.150316 0.679636
vt 0.850441 0.105340
vt 0.924900 0.301338
vt 0.850441 0.301338
vt 0.150316 0.962888
vt 0.924900 0.105340
vt 0.849782 0.036074
vt 0.150126 0.602676
vt 0.150316 0.679636
vt 0.850441 0.497335
vt 0.150316 0.962888
vt 0.849782 0.566603
vt 0.849684 0.602676
vt 0.225473 0.602676
vt 0.924785 0.105340
vt 0.075158 0.602676
vt 1.000000 0.602676
vt 0.849684 0.000000
vt 0.924900 0.497335
vn 0.9776 0.2035 0.0531
vn 0.9979 0.0641 0.0000
vn 0.9795 0.2016 0.0000
vn 0.9985 -0.0023 0.0556
vn 1.0000 0.0000 0.0000
vn 0.6985 -0.1166 0.7060
vn 0.9981 0.0000 0.0617
vn 0.9967 0.0629 0.0518
vn 0.6511 -0.0650 0.7562
vn 0.6125 0.6519 0.4470
vn 0.5933 0.3126 0.7418
vn 0.5642 0.8087 0.1668
vn 0.6024 0.7982 0.0000
vn 0.9776 0.2035 -0.0531
vn 0.9985 -0.0023 -0.0556
vn 0.6985 -0.1166 -0.7060
vn 0.9981 -0.0000 -0.0617
vn 0.9967 0.0629 -0.0518
vn 0.6511 -0.0650 -0.7562
vn 0.5933 0.3126 -0.7418
vn 0.6125 0.6519 -0.4470
vn 0.5642 0.8087 -0.1668
vn 0.0000 -0.0850 0.9964
vn 0.0000 1.0000 0.0000
vn 0.0000 0.3937 0.9192
vn 0.0000 0.8305 0.5570
vn 0.0000 -0.0850 -0.9964
vn 0.0000 0.3937 -0.9192
vn -0.0000 0.8305 -0.5570
vn 0.0000 0.9780 -0.2085
vn -0.9979 0.0641 0.0000
vn -0.9776 0.2035 0.0531
vn -0.9795 0.2016 0.0000
vn -1.0000 0.0000 0.0000
vn -0.9985 -0.0023 0.0556
vn -0.6985 -0.1166 0.7060
vn -0.9981 0.0000 0.0617
vn -0.9967 0.0629 0.0518
vn -0.6511 -0.0650 0.7562
vn -0.5933 0.3126 0.7418
vn -0.6125 0.6519 0.4470
vn -0.5642 0.8087 0.1668
vn -0.6024 0.7982 0.0000
vn -0.9776 0.2035 -0.0531
vn -0.9985 -0.0023 -0.0556
vn -0.6985 -0.1166 -0.7060
vn -0.9981 0.0000 -0.0617
vn -0.9967 0.0629 -0.0518
vn -0.6511 -0.0650 -0.7562
vn -0.6125 0.6519 -0.4470
vn -0.5933 0.3126 -0.7418
vn -0.5642 0.8087 -0.1668
vn 0.0000 0.9780 0.2085
vn 0.0000 -0.1694 0.9855
vn 0.0000 -0.1694 -0.9855
usemtl mat_arbusto
s 1
f 4/1/1 11/2/2 12/3/3
f 1/4/4 13/5/5 10/6/5
f 1/4/4 8/7/6 3/8/7
f 2/9/8 6/10/9 1/4/4
f 2/9/8 9/11/10 7/12/11
f 4/1/1 5/13/12 9/11/10
f 1/4/4 11/2/2 2/9/8
f 4/1/1 14/14/13 5/13/12
f 11/2/2 18/15/14 12/3/3
f 13/5/5 15/16/15 10/6/5
f 22/17/16 15/16/15 17/18/17
f 16/19/18 20/20/19 21/21/20
f 16/19/18 23/22/21 18/15/14
f 18/15/14 23/22/21 19/23/22
f 11/2/2 15/16/15 16/19/18
f 19/23/22 12/3/3 18/15/14
f 30/24/23 8/25/6 6/26/9
f 26/27/24 5/28/12 14/29/13
f 31/30/25 6/26/9 7/31/11
f 5/28/12 25/32/26 9/33/10
f 9/33/10 31/34/25 7/35/11
f 22/36/16 33/37/27 20/38/19
f 19/39/22 26/27/24 14/29/13
f 20/38/19 34/40/28 21/41/20
f 19/39/22 28/42/29 32/43/30
f 23/44/21 34/45/28 28/42/29
f 45/46/31 38/47/32 46/48/33
f 47/49/34 35/50/35 44/51/34
f 42/52/36 35/50/35 37/53/37
f 36/54/38 40/55/39 41/56/40
f 36/54/38 43/57/41 38/47/32
f 38/47/32 43/57/41 39/58/42
f 45/46/31 35/50/35 36/54/38
f 38/47/32 48/59/43 46/48/33
f 52/60/44 45/46/31 46/48/33
f 49/61/45 47/49/34 44/51/34
f 49/61/45 56/62/46 51/63/47
f 50/64/48 54/65/49 49/61/45
f 50/64/48 57/66/50 55/67/51
f 52/60/44 53/68/52 57/66/50
f 49/61/45 45/46/31 50/64/48
f 46/48/33 53/68/52 52/60/44
f 42/69/36 30/24/23 40/70/39
f 39/71/42 58/72/24 48/73/43
f 40/70/39 31/30/25 41/74/40
f 39/71/42 25/32/26 59/75/53
f 43/76/41 31/34/25 25/32/26
f 33/37/27 56/77/46 54/78/49
f 58/72/24 53/79/52 48/73/43
f 34/40/28 54/78/49 55/80/51
f 53/79/52 28/42/29 57/81/50
f 57/81/50 34/45/28 55/82/51
f 4/1/1 2/9/8 11/2/2
f 1/4/4 3/8/7 13/5/5
f 1/4/4 6/10/9 8/7/6
f 2/9/8 7/12/11 6/10/9
f 2/9/8 4/1/1 9/11/10
f 1/4/4 10/6/5 11/2/2
f 4/1/1 12/3/3 14/14/13
f 11/2/2 16/19/18 18/15/14
f 13/5/5 17/18/17 15/16/15
f 22/17/16 20/20/19 15/16/15
f 16/19/18 15/16/15 20/20/19
f 16/19/18 21/21/20 23/22/21
f 11/2/2 10/6/5 15/16/15
f 19/23/22 14/14/13 12/3/3
f 30/24/23 24/83/54 8/25/6
f 26/27/24 29/84/53 5/28/12
f 31/30/25 30/24/23 6/26/9
f 5/28/12 29/84/53 25/32/26
f 9/33/10 25/32/26 31/34/25
f 22/36/16 27/85/55 33/37/27
f 19/39/22 32/43/30 26/27/24
f 20/38/19 33/37/27 34/40/28
f 19/39/22 23/44/21 28/42/29
f 23/44/21 21/86/20 34/45/28
f 45/46/31 36/54/38 38/47/32
f 47/49/34 37/53/37 35/50/35
f 42/52/36 40/55/39 35/50/35
f 36/54/38 35/50/35 40/55/39
f 36/54/38 41/56/40 43/57/41
f 45/46/31 44/51/34 35/50/35
f 38/47/32 39/58/42 48/59/43
f 52/60/44 50/64/48 45/46/31
f 49/61/45 51/63/47 47/49/34
f 49/61/45 54/65/49 56/62/46
f 50/64/48 55/67/51 54/65/49
f 50/64/48 52/60/44 57/66/50
f 49/61/45 44/51/34 45/46/31
f 46/48/33 48/59/43 53/68/52
f 42/69/36 24/83/54 30/24/23
f 39/71/42 59/75/53 58/72/24
f 40/70/39 30/24/23 31/30/25
f 39/71/42 43/76/41 25/32/26
f 43/76/41 41/87/40 31/34/25
f 33/37/27 27/85/55 56/77/46
f 58/72/24 60/88/30 53/79/52
f 34/40/28 33/37/27 54/78/49
f 53/79/52 60/88/30 28/42/29
f 57/81/50 28/42/29 34/45/28
